<svg id="visual" viewBox="0 0 900 600" width="900" height="600" xmlns="http://www.w3.org/2000/svg" xmlns:xlink="http://www.w3.org/1999/xlink" version="1.1"><rect x="0" y="0" width="900" height="600" fill="#bfe1fc"></rect><path d="M0 368L21.5 381.2C43 394.3 86 420.7 128.8 426.3C171.7 432 214.3 417 257.2 404.3C300 391.7 343 381.3 385.8 386.5C428.7 391.7 471.3 412.3 514.2 411.2C557 410 600 387 642.8 387.2C685.7 387.3 728.3 410.7 771.2 420.3C814 430 857 426 878.5 424L900 422L900 601L878.5 601C857 601 814 601 771.2 601C728.3 601 685.7 601 642.8 601C600 601 557 601 514.2 601C471.3 601 428.7 601 385.8 601C343 601 300 601 257.2 601C214.3 601 171.7 601 128.8 601C86 601 43 601 21.5 601L0 601Z" fill="#fa7268"></path><path d="M0 433L21.5 439.3C43 445.7 86 458.3 128.8 455.2C171.7 452 214.3 433 257.2 434C300 435 343 456 385.8 466.5C428.7 477 471.3 477 514.2 469.3C557 461.7 600 446.3 642.8 446.5C685.7 446.7 728.3 462.3 771.2 458.5C814 454.7 857 431.3 878.5 419.7L900 408L900 601L878.5 601C857 601 814 601 771.2 601C728.3 601 685.7 601 642.8 601C600 601 557 601 514.2 601C471.3 601 428.7 601 385.8 601C343 601 300 601 257.2 601C214.3 601 171.7 601 128.8 601C86 601 43 601 21.5 601L0 601Z" fill="#ef5f67"></path><path d="M0 437L21.5 438.8C43 440.7 86 444.3 128.8 454.8C171.7 465.3 214.3 482.7 257.2 488.2C300 493.7 343 487.3 385.8 482.8C428.7 478.3 471.3 475.7 514.2 472C557 468.3 600 463.7 642.8 468.3C685.7 473 728.3 487 771.2 494.2C814 501.3 857 501.7 878.5 501.8L900 502L900 601L878.5 601C857 601 814 601 771.2 601C728.3 601 685.7 601 642.8 601C600 601 557 601 514.2 601C471.3 601 428.7 601 385.8 601C343 601 300 601 257.2 601C214.3 601 171.7 601 128.8 601C86 601 43 601 21.5 601L0 601Z" fill="#e34c67"></path><path d="M0 486L21.5 487.7C43 489.3 86 492.7 128.8 494.8C171.7 497 214.3 498 257.2 496.7C300 495.3 343 491.7 385.8 496.8C428.7 502 471.3 516 514.2 519C557 522 600 514 642.8 510.2C685.7 506.3 728.3 506.7 771.2 508.7C814 510.7 857 514.3 878.5 516.2L900 518L900 601L878.5 601C857 601 814 601 771.2 601C728.3 601 685.7 601 642.8 601C600 601 557 601 514.2 601C471.3 601 428.7 601 385.8 601C343 601 300 601 257.2 601C214.3 601 171.7 601 128.8 601C86 601 43 601 21.5 601L0 601Z" fill="#d53867"></path><path d="M0 547L21.5 551C43 555 86 563 128.8 564.7C171.7 566.3 214.3 561.7 257.2 554.7C300 547.7 343 538.3 385.8 534.3C428.7 530.3 471.3 531.7 514.2 530.8C557 530 600 527 642.8 533.5C685.7 540 728.3 556 771.2 563.3C814 570.7 857 569.3 878.5 568.7L900 568L900 601L878.5 601C857 601 814 601 771.2 601C728.3 601 685.7 601 642.8 601C600 601 557 601 514.2 601C471.3 601 428.7 601 385.8 601C343 601 300 601 257.2 601C214.3 601 171.7 601 128.8 601C86 601 43 601 21.5 601L0 601Z" fill="#c62368"></path></svg>